<svg width="32" height="31" viewBox="0 0 32 31" fill="none" xmlns="http://www.w3.org/2000/svg">
<path d="M6.3319 6.08813C5.11312 6.08813 4.12109 6.85299 4.12109 7.79267C4.12109 8.73235 5.11312 9.49721 6.3319 9.49721C7.55068 9.49721 8.54271 8.73235 8.54271 7.79267C8.54271 6.85299 7.55068 6.08813 6.3319 6.08813ZM6.3319 8.40456C5.89541 8.40456 5.53828 8.12921 5.53828 7.79267C5.53828 7.45614 5.89541 7.18079 6.3319 7.18079C6.76839 7.18079 7.12552 7.45614 7.12552 7.79267C7.12552 8.12921 6.76839 8.40456 6.3319 8.40456Z" fill="#72BEC0"/>
<path d="M17.4767 9.49721C18.6955 9.49721 19.6875 8.73235 19.6875 7.79267C19.6875 6.85299 18.6955 6.08813 17.4767 6.08813C16.2579 6.08813 15.2659 6.85299 15.2659 7.79267C15.2659 8.73235 16.2579 9.49721 17.4767 9.49721ZM17.4767 7.18079C17.9132 7.18079 18.2703 7.45614 18.2703 7.79267C18.2703 8.12921 17.9132 8.40456 17.4767 8.40456C17.0402 8.40456 16.6831 8.12921 16.6831 7.79267C16.6831 7.45614 17.0402 7.18079 17.4767 7.18079Z" fill="#72BEC0"/>
<path d="M14.1208 7.79267C14.1208 6.85299 13.1288 6.08813 11.91 6.08813C10.6912 6.08813 9.69922 6.85299 9.69922 7.79267C9.69922 8.73235 10.6912 9.49721 11.91 9.49721C13.1288 9.49721 14.1208 8.73235 14.1208 7.79267ZM11.1107 7.79267C11.1107 7.45614 11.4679 7.18079 11.9044 7.18079C12.3409 7.18079 12.698 7.45614 12.698 7.79267C12.698 8.12921 12.3409 8.40456 11.9044 8.40456C11.4679 8.40456 11.1107 8.12921 11.1107 7.79267Z" fill="#72BEC0"/>
<path d="M21.5979 26.1624C20.3678 26.1624 19.3701 26.936 19.3701 27.88C19.3701 28.8241 20.3735 29.5977 21.5979 29.5977C22.8224 29.5977 23.8257 28.8241 23.8257 27.88C23.8257 26.936 22.828 26.1624 21.5979 26.1624ZM21.5979 28.5094C21.1501 28.5094 20.7873 28.2297 20.7873 27.8844C20.7873 27.5391 21.1501 27.2594 21.5979 27.2594C22.0458 27.2594 22.4086 27.5391 22.4086 27.8844C22.4086 28.2297 22.0458 28.5094 21.5979 28.5094Z" fill="#72BEC0"/>
<path d="M29.5624 0.397705H13.6333C13.0948 0.397705 12.5846 0.533194 12.1594 0.777948C12.0744 0.777948 11.9894 0.777948 11.9043 0.777948C8.76386 0.777948 5.80478 1.48599 3.56563 2.76657C1.2698 4.0865 0 5.85222 0 7.74907C0 9.64591 1.26413 11.4116 3.56563 12.7316C5.63472 13.916 8.31603 14.6109 11.1957 14.7071V28.9815C11.1957 30.0173 12.2898 30.8608 13.6333 30.8608H29.5624C30.9059 30.8608 32 30.0173 32 28.9815V2.27707C32 1.24123 30.9059 0.397705 29.5624 0.397705ZM1.42285 7.74907C1.42285 4.51045 6.1279 1.8706 11.9043 1.8706C12.0631 1.8706 12.2161 1.87497 12.3748 1.87497H12.3919C12.5619 1.87934 12.7263 1.88808 12.8964 1.89682C12.902 1.89682 12.902 1.89682 12.9077 1.89682C12.9871 1.90119 13.0608 1.90556 13.1401 1.90994C13.1515 1.90994 13.1571 1.90994 13.1685 1.90994C13.2422 1.91431 13.3102 1.91868 13.3839 1.92742C13.4009 1.92742 13.4122 1.93179 13.4292 1.93179C13.4973 1.93616 13.5596 1.9449 13.6276 1.94927C13.6503 1.94927 13.6673 1.95364 13.69 1.95364C13.7523 1.95801 13.809 1.96675 13.8714 1.97112C13.8997 1.97549 13.9224 1.97549 13.9508 1.97987C14.0074 1.98424 14.0585 1.99298 14.1151 1.99735C14.1435 2.00172 14.1775 2.00609 14.2058 2.01046C14.2569 2.01483 14.3079 2.02357 14.3532 2.02794C14.3872 2.03231 14.4269 2.03668 14.4609 2.04105C14.5063 2.04542 14.5516 2.05417 14.5913 2.05854C14.631 2.06291 14.6707 2.07165 14.716 2.07602C14.7557 2.08039 14.7954 2.08913 14.8351 2.0935C14.8804 2.10224 14.9258 2.10661 14.9711 2.11535C15.0051 2.11972 15.0392 2.12847 15.0732 2.13284C15.1242 2.14158 15.1695 2.15032 15.2205 2.15906C15.2489 2.16343 15.2829 2.17217 15.3112 2.17654C15.3623 2.18528 15.4133 2.1984 15.4643 2.20714C15.4926 2.21151 15.521 2.22025 15.5493 2.22462C15.6004 2.23336 15.6514 2.24647 15.7024 2.25521C15.7307 2.25958 15.7591 2.26833 15.7874 2.2727C15.8384 2.28581 15.8895 2.29455 15.9348 2.30766C15.9632 2.3164 15.9915 2.32077 16.0198 2.32951C16.0652 2.34263 16.1105 2.35137 16.1559 2.36448C16.1899 2.37322 16.2239 2.38196 16.2523 2.3907C16.2919 2.39944 16.3316 2.41256 16.3713 2.4213C16.411 2.43004 16.4507 2.44315 16.4847 2.45189C16.5187 2.46063 16.547 2.46937 16.581 2.47811C16.6264 2.49123 16.6774 2.50434 16.7228 2.51745C16.7454 2.52182 16.7624 2.53056 16.7851 2.53493C16.8418 2.55241 16.9042 2.5699 16.9608 2.58738C16.9665 2.58738 16.9722 2.59175 16.9779 2.59175C17.9245 2.88458 18.7919 3.26482 19.5571 3.72374C19.9483 3.95538 20.2997 4.2045 20.6115 4.46674C20.6172 4.47111 20.6172 4.47111 20.6229 4.47548C21.0197 4.80765 21.3484 5.15293 21.6149 5.51569C21.6205 5.52006 21.6262 5.5288 21.6262 5.53317C21.6489 5.55939 21.6659 5.58999 21.6886 5.61621C21.6942 5.62495 21.6999 5.63369 21.7056 5.64244C21.7623 5.72548 21.8133 5.80852 21.8643 5.89156C21.8756 5.90904 21.887 5.92652 21.8926 5.94401C21.904 5.96586 21.9153 5.98334 21.9267 6.0052C21.938 6.02705 21.9493 6.04453 21.9607 6.06638C21.972 6.08387 21.9777 6.10135 21.989 6.11883C22.0004 6.14505 22.0174 6.17128 22.0287 6.20187C22.0344 6.21498 22.04 6.2281 22.0457 6.23684C22.0627 6.27617 22.0797 6.31551 22.0967 6.35484C22.1024 6.36796 22.1081 6.38107 22.1137 6.39418C22.1251 6.42477 22.1364 6.451 22.1477 6.48159C22.1534 6.4947 22.1591 6.50782 22.1647 6.52093C22.1761 6.55152 22.1874 6.58212 22.1988 6.61271C22.2044 6.62582 22.2044 6.63456 22.2101 6.64767C22.2214 6.69138 22.2384 6.73072 22.2498 6.77442V6.77879C22.2611 6.81813 22.2725 6.85746 22.2838 6.90117C22.2895 6.91428 22.2895 6.92302 22.2951 6.93614C22.3008 6.96673 22.3121 6.99732 22.3178 7.02792C22.3178 7.04103 22.3235 7.04977 22.3235 7.06288V7.06725C22.3291 7.10222 22.3348 7.13718 22.3405 7.16778C22.3405 7.17215 22.3405 7.17215 22.3405 7.17652C22.3405 7.18963 22.3461 7.20274 22.3461 7.21585C22.3518 7.24645 22.3575 7.28141 22.3632 7.31201C22.3632 7.32949 22.3688 7.35134 22.3688 7.36882C22.3688 7.39505 22.3745 7.4169 22.3745 7.44313C22.3745 7.45187 22.3745 7.46061 22.3745 7.46935C22.3745 7.4912 22.3802 7.51306 22.3802 7.53491C22.3802 7.54802 22.3802 7.56113 22.3802 7.57861C22.3802 7.58736 22.3802 7.60047 22.3802 7.60921C22.3802 7.65291 22.3858 7.69662 22.3858 7.7447C22.3858 7.7884 22.3858 7.83648 22.3802 7.88019C22.3802 7.8933 22.3802 7.91078 22.3802 7.92389C22.3802 7.95449 22.3745 7.98508 22.3745 8.01568C22.3745 8.03316 22.3688 8.05064 22.3688 8.06812C22.3688 8.09435 22.3632 8.12494 22.3575 8.15116C22.3575 8.16865 22.3518 8.1905 22.3518 8.20798C22.3461 8.23421 22.3461 8.26043 22.3405 8.28665C22.3348 8.30414 22.3348 8.32599 22.3291 8.34347C22.3235 8.36969 22.3178 8.39592 22.3121 8.42214C22.3065 8.43962 22.3065 8.45711 22.3008 8.47896C22.2951 8.50518 22.2895 8.53578 22.2781 8.562C22.2725 8.57948 22.2668 8.59697 22.2668 8.61445C22.2611 8.64504 22.2498 8.67564 22.2384 8.70623C22.2328 8.71934 22.2328 8.73683 22.2271 8.74994C22.2158 8.79364 22.1988 8.83735 22.1818 8.88106C22.1647 8.9335 22.1421 8.98595 22.1194 9.0384C22.1137 9.05151 22.1081 9.06899 22.1024 9.0821C22.0854 9.12581 22.0627 9.17389 22.04 9.21759C22.0344 9.22633 22.0344 9.23507 22.0287 9.24382C22.006 9.29626 21.9777 9.34871 21.9493 9.39679C21.9437 9.4099 21.938 9.42301 21.9267 9.43612C21.904 9.47983 21.8813 9.51916 21.8586 9.56287C21.853 9.57598 21.8473 9.58472 21.836 9.59784C21.8076 9.65028 21.7736 9.69836 21.7396 9.75081C21.7339 9.75955 21.7283 9.77266 21.7169 9.7814C21.6886 9.82511 21.6602 9.86444 21.6319 9.90815C21.6205 9.92126 21.6149 9.93437 21.6035 9.94748C21.5695 9.99556 21.5298 10.048 21.4902 10.0961C21.4845 10.1005 21.4845 10.1048 21.4788 10.1092C21.4448 10.1529 21.4051 10.201 21.3711 10.2447C21.3598 10.2578 21.3485 10.2709 21.3371 10.284C21.2974 10.3277 21.2577 10.3714 21.2181 10.4195C21.2124 10.4239 21.2124 10.4283 21.2067 10.4326C21.1614 10.4807 21.116 10.5288 21.0707 10.5769C21.0593 10.59 21.048 10.6031 21.0367 10.6118C20.997 10.6512 20.9573 10.6905 20.9176 10.7298C20.9063 10.7386 20.9006 10.7473 20.8893 10.756C20.8383 10.8041 20.7872 10.8478 20.7362 10.8959C20.7249 10.9046 20.7136 10.9178 20.7022 10.9265C20.6569 10.9658 20.6172 11.0008 20.5718 11.0401C20.5605 11.0489 20.5435 11.062 20.5322 11.0707C20.4755 11.1144 20.4188 11.1581 20.3621 11.2062C20.3508 11.215 20.3451 11.2193 20.3337 11.2281C20.2827 11.2674 20.2317 11.3024 20.1807 11.3417C20.1637 11.3548 20.1467 11.3636 20.1353 11.3767C20.073 11.4204 20.0106 11.4641 19.9483 11.5034C19.9256 11.5209 19.9029 11.534 19.8802 11.5515C19.8746 11.5559 19.8689 11.5602 19.8576 11.569C19.8406 11.5821 19.8292 11.5908 19.8122 11.6039C19.8066 11.6083 19.7952 11.6171 19.7895 11.6214C19.7782 11.6345 19.7612 11.6477 19.7499 11.6608C19.7442 11.6651 19.7385 11.6739 19.7329 11.6782C19.6932 11.7176 19.6648 11.7569 19.6308 11.7963C19.6252 11.8006 19.6195 11.8094 19.6195 11.8137C19.6081 11.8268 19.5968 11.8443 19.5911 11.8574C19.5855 11.8662 19.5798 11.8706 19.5798 11.8793C19.5685 11.8924 19.5628 11.9099 19.5515 11.923C19.5458 11.9317 19.5458 11.9361 19.5401 11.9449C19.5174 11.9929 19.4948 12.041 19.4778 12.0891C19.4778 12.0978 19.4721 12.1022 19.4721 12.1109C19.4551 12.1634 19.4438 12.2202 19.4381 12.2726C19.4381 12.2814 19.4381 12.2858 19.4381 12.2945C19.4381 12.3207 19.4324 12.3513 19.4324 12.3775V14.7683L17.6638 13.4046C17.6411 13.3872 17.6184 13.3697 17.5957 13.3566C17.5901 13.3522 17.5844 13.3478 17.5787 13.3434C17.5617 13.3303 17.5391 13.3172 17.5221 13.3085C17.5164 13.3041 17.5107 13.2997 17.505 13.2997C17.4824 13.2866 17.454 13.2735 17.4314 13.2604C17.4257 13.256 17.42 13.256 17.4143 13.2517C17.3917 13.2429 17.3747 13.2298 17.352 13.2211C17.3463 13.2167 17.335 13.2123 17.3293 13.2123C17.301 13.2036 17.2783 13.1905 17.25 13.1817C17.25 13.1817 17.25 13.1817 17.2443 13.1817C17.2159 13.173 17.1876 13.1643 17.1593 13.1555C17.1536 13.1511 17.1422 13.1511 17.1366 13.1468C17.1139 13.1424 17.0912 13.1337 17.0686 13.1293C17.0629 13.1293 17.0515 13.1249 17.0459 13.1249C17.0175 13.1162 16.9892 13.1118 16.9608 13.1074C16.9552 13.1074 16.9495 13.1031 16.9382 13.1031C16.9155 13.0987 16.8928 13.0943 16.8701 13.09C16.8588 13.09 16.8531 13.0856 16.8418 13.0856C16.8135 13.0812 16.7851 13.0812 16.7568 13.0768H16.7511C16.7228 13.0725 16.6888 13.0725 16.6604 13.0725C16.6491 13.0725 16.6434 13.0725 16.6321 13.0725C16.6207 13.0725 16.6094 13.0725 16.6037 13.0725C16.5981 13.0725 16.5867 13.0725 16.581 13.0725C16.5584 13.0725 16.5357 13.0725 16.513 13.0725C16.496 13.0725 16.4847 13.0725 16.4677 13.0768C16.445 13.0768 16.4223 13.0812 16.3996 13.0812C16.3826 13.0812 16.3713 13.0856 16.3543 13.0856C16.3316 13.09 16.3033 13.0943 16.2806 13.0987C16.2693 13.0987 16.2579 13.1031 16.2466 13.1031C16.2069 13.1118 16.1729 13.1162 16.1389 13.1249C16.0482 13.1468 15.9575 13.1686 15.8668 13.1905C15.8611 13.1905 15.8611 13.1905 15.8554 13.1905C15.8384 13.1948 15.8271 13.1992 15.8101 13.1992C15.7364 13.2167 15.657 13.2342 15.5777 13.2517C15.572 13.2517 15.5663 13.256 15.5607 13.256C15.555 13.256 15.5437 13.2604 15.538 13.2604C15.453 13.2779 15.3679 13.2954 15.2829 13.3129C15.2772 13.3129 15.2716 13.3129 15.2659 13.3172C14.7841 13.409 14.2852 13.4833 13.7807 13.5314C13.775 13.5314 13.7694 13.5314 13.7637 13.5314C13.6163 13.5445 13.4689 13.5576 13.3215 13.5707C13.3159 13.5707 13.3102 13.5707 13.3045 13.5707C13.2535 13.5751 13.1968 13.5795 13.1458 13.5838C13.1118 13.5838 13.0834 13.5882 13.0494 13.5882C13.0041 13.5926 12.9531 13.5926 12.9077 13.5969C12.868 13.5969 12.8283 13.6013 12.7887 13.6013C12.7433 13.6013 12.7036 13.6057 12.6583 13.6057C12.6129 13.6057 12.5676 13.6101 12.5222 13.6101C12.4826 13.6101 12.4485 13.6144 12.4089 13.6144C12.3578 13.6144 12.3012 13.6188 12.2501 13.6188C12.2218 13.6188 12.1878 13.6188 12.1594 13.6188C12.0744 13.6188 11.9894 13.6188 11.9043 13.6188C6.12223 13.6232 1.42285 10.9877 1.42285 7.74907ZM14.58 14.541C14.7274 14.5191 14.8748 14.4973 15.0221 14.4754C15.0505 14.4711 15.0788 14.4667 15.1072 14.4623C15.1639 14.4536 15.2149 14.4448 15.2716 14.4361C15.3056 14.4317 15.3453 14.423 15.3793 14.4186C15.4303 14.4099 15.4813 14.4011 15.5267 14.3924C15.5663 14.3837 15.6117 14.3749 15.6514 14.3705C15.6967 14.3618 15.7421 14.3531 15.7874 14.3443C15.8328 14.3356 15.8838 14.3268 15.9291 14.3137C15.9688 14.305 16.0085 14.2962 16.0482 14.2875C16.1049 14.2744 16.1616 14.2613 16.2126 14.2525C16.2466 14.2438 16.2749 14.2394 16.3089 14.2307C16.394 14.2088 16.4847 14.1913 16.5697 14.1695C16.6094 14.1608 16.6434 14.1651 16.6717 14.187L18.8825 15.8915C18.9052 15.909 18.9336 15.9265 18.9619 15.944C18.9676 15.9483 18.9789 15.9527 18.9846 15.9571C19.0073 15.9702 19.0243 15.9789 19.0469 15.992C19.0526 15.9964 19.064 16.0008 19.0696 16.0051C19.098 16.0183 19.1263 16.0314 19.1547 16.0445H19.1603C19.1887 16.0576 19.217 16.0663 19.2453 16.0751C19.2567 16.0794 19.2624 16.0794 19.2737 16.0838C19.2964 16.0926 19.319 16.0969 19.3417 16.1013C19.3531 16.1057 19.3644 16.1057 19.3701 16.11C19.4041 16.1188 19.4324 16.1232 19.4664 16.1275C19.4721 16.1275 19.4721 16.1275 19.4778 16.1275C19.5061 16.1319 19.5401 16.1363 19.5685 16.1363C19.5798 16.1363 19.5911 16.1363 19.6025 16.1406C19.6252 16.1406 19.6478 16.145 19.6762 16.145C19.6818 16.145 19.6875 16.145 19.6988 16.145C19.7045 16.145 19.7045 16.145 19.7102 16.145C19.7442 16.145 19.7782 16.145 19.8122 16.1406H19.8179C19.8462 16.1363 19.8802 16.1363 19.9086 16.1319C19.9199 16.1319 19.9313 16.1275 19.9426 16.1275C19.9653 16.1232 19.9936 16.1188 20.0163 16.1144C20.0276 16.11 20.039 16.11 20.0446 16.1057C20.0787 16.0969 20.1127 16.0882 20.141 16.0794C20.5718 15.9396 20.8553 15.6162 20.8553 15.2578V12.3819C20.8553 12.3601 20.8666 12.3382 20.8893 12.3251C22.6523 11.1407 23.6726 9.63717 23.7917 8.06375C23.7973 7.95886 23.803 7.85396 23.803 7.74907C23.803 7.67914 23.803 7.60921 23.7973 7.54365C23.7973 7.53928 23.7973 7.53491 23.7973 7.53054C23.7973 7.5218 23.7973 7.51306 23.7973 7.50431C23.7973 7.45624 23.7917 7.41253 23.786 7.36445C23.786 7.36008 23.786 7.35571 23.786 7.35571C23.786 7.34697 23.786 7.33386 23.7803 7.32512C23.7803 7.32075 23.7803 7.31638 23.7803 7.30764C23.7747 7.25956 23.769 7.20711 23.7633 7.15904C23.7633 7.15029 23.7633 7.14155 23.7577 7.13281C23.7577 7.12844 23.7577 7.12407 23.7577 7.1197C23.6273 6.25432 23.2305 5.42828 22.5899 4.66779H28.6214V24.9649H14.58V14.541ZM30.5828 28.9815C30.5828 29.4142 30.1236 29.7682 29.5624 29.7682H13.6333C13.0721 29.7682 12.6129 29.4142 12.6129 28.9815V14.7071C12.6469 14.7071 12.681 14.7027 12.715 14.7027C12.7603 14.7027 12.8057 14.6983 12.851 14.6983C12.8907 14.6983 12.936 14.694 12.9757 14.694C13.0324 14.6896 13.0891 14.6896 13.1458 14.6852C13.1515 14.6852 13.1515 14.6852 13.1571 14.6852V25.5112C13.1571 25.8128 13.4746 26.0575 13.8657 26.0575H29.3244C29.7155 26.0575 30.0329 25.8128 30.0329 25.5112V4.11709C30.0329 3.81552 29.7155 3.57077 29.3244 3.57077H21.4448C21.3938 3.53143 21.3371 3.48773 21.2804 3.44839C21.2691 3.43965 21.2634 3.43528 21.2521 3.42654C21.2294 3.40905 21.2067 3.39594 21.1897 3.37846C21.0197 3.25608 20.8496 3.13808 20.6625 3.02007H25.6964C26.0875 3.02007 26.405 2.77532 26.405 2.47374C26.405 2.17217 26.0875 1.92742 25.6964 1.92742H20.1977C19.8519 1.92742 19.5628 2.11972 19.5004 2.37322C19.098 2.17654 18.6728 1.99735 18.225 1.83564C18.208 1.83126 18.1966 1.82689 18.1796 1.81815C18.1173 1.7963 18.0492 1.77008 17.9869 1.74822C17.9585 1.73948 17.9302 1.73074 17.9019 1.71763C17.8452 1.69578 17.7828 1.67829 17.7261 1.65644C17.6864 1.64333 17.6524 1.63022 17.6128 1.62148C17.5617 1.60399 17.5107 1.58651 17.454 1.5734C17.3633 1.54718 17.2783 1.52095 17.1876 1.49473C17.1819 1.49473 17.1763 1.49036 17.1706 1.49036H29.5624C30.1236 1.49036 30.5828 1.84438 30.5828 2.27707V28.9815Z" fill="#72BEC0"/>
</svg>
