<svg width="16" height="16" viewBox="0 0 16 16" fill="none" xmlns="http://www.w3.org/2000/svg">
<g clip-path="url(#clip0_74_2)">
<path d="M9.89915 8.00036L15.8418 2.05813C16.0528 1.84711 16.0528 1.50563 15.8418 1.29468L14.706 0.158544C14.6049 0.0574621 14.4676 0.000549316 14.3244 0.000549316C14.1811 0.000549316 14.0438 0.0574621 13.9426 0.158544L8.00002 6.10123L2.05741 0.158544C1.95626 0.0574621 1.81899 0.000549316 1.67569 0.000549316C1.53242 0.000549316 1.39512 0.0574621 1.294 0.158544L0.158279 1.29468C-0.0527393 1.50563 -0.0527393 1.84711 0.158279 2.05813L6.10089 8.00039L0.158869 13.9419C-0.0520449 14.153 -0.0520449 14.4944 0.158869 14.7054L1.29466 15.8415C1.39574 15.9426 1.53304 15.9995 1.67635 15.9995C1.81965 15.9995 1.95692 15.9426 2.0581 15.8415L7.99999 9.89952L13.9419 15.8415C14.0431 15.9426 14.1803 15.9995 14.3236 15.9995C14.467 15.9995 14.6042 15.9426 14.7053 15.8415L15.8411 14.7054C16.052 14.4944 16.052 14.153 15.8411 13.9419L9.89915 8.00036Z" fill="white" stroke="white" stroke-width="1.73621"/>
</g>
<defs>
<clipPath id="clip0_74_2">
<rect width="16" height="16" fill="white"/>
</clipPath>
</defs>
</svg>
