<svg width="417" height="376" viewBox="0 0 417 376" fill="none" xmlns="http://www.w3.org/2000/svg">
<path d="M380.763 157.251C340.114 94.4738 229.851 116.831 207.333 86.2995C195.798 70.688 182.896 52.5423 164.181 43.1197C146.342 34.0957 125.659 30.9298 107.628 32.1179C43.2347 36.3667 15.9379 88.3149 28.3061 145.362C44.8193 221.456 119.629 299.191 208.5 299.732C254.987 300.048 299.406 285.008 334.184 263.854L334.96 263.38C369.737 242.031 411.804 205.176 380.763 157.251Z" fill="#72BEC0"/>
<path opacity="0.7" d="M380.763 157.251C340.114 94.4738 229.851 116.831 207.333 86.2995C195.798 70.688 182.896 52.5423 164.181 43.1197C146.342 34.0957 125.659 30.9298 107.628 32.1179C43.2347 36.3667 15.9379 88.3149 28.3061 145.362C44.8193 221.456 119.629 299.191 208.5 299.732C254.987 300.048 299.406 285.008 334.184 263.854L334.96 263.38C369.737 242.031 411.804 205.176 380.763 157.251Z" fill="white"/>
<path d="M65.2105 161.815H60.6903C55.8395 161.815 51.1875 163.553 47.7575 166.646C44.3276 169.738 42.4006 173.933 42.4006 178.307V268.802C42.4006 273.176 44.3276 277.371 47.7575 280.464C51.1875 283.556 55.8395 285.294 60.6903 285.294H122.707C127.557 285.294 132.209 283.556 135.639 280.464C139.069 277.371 140.996 273.176 140.996 268.802" stroke="#263238" stroke-width="1.10311" stroke-linecap="round" stroke-linejoin="round" stroke-dasharray="4.41 4.41"/>
<path d="M135.942 76.4258V58.5507C135.942 55.8761 137.119 53.3107 139.214 51.4174C141.309 49.524 144.151 48.4573 147.118 48.4514H227.766C230.736 48.4514 233.585 49.5154 235.686 51.4094C237.786 53.3034 238.966 55.8722 238.966 58.5507" stroke="#263238" stroke-width="1.10311" stroke-linecap="round" stroke-linejoin="round" stroke-dasharray="4.41 4.41"/>
<path d="M208.5 355.064C296.715 355.064 368.228 346.055 368.228 334.941C368.228 323.827 296.715 314.817 208.5 314.817C120.285 314.817 48.7722 323.827 48.7722 334.941C48.7722 346.055 120.285 355.064 208.5 355.064Z" fill="#72BEC0"/>
<path opacity="0.5" d="M208.5 355.064C296.715 355.064 368.228 346.055 368.228 334.941C368.228 323.827 296.715 314.817 208.5 314.817C120.285 314.817 48.7722 323.827 48.7722 334.941C48.7722 346.055 120.285 355.064 208.5 355.064Z" fill="white"/>
<path d="M359.07 100.407V235.812C359.07 240.238 357.121 244.484 353.651 247.614C350.18 250.745 345.473 252.505 340.564 252.507H76.4362C71.5272 252.505 66.82 250.745 63.3496 247.614C59.8792 244.484 57.9297 240.238 57.9297 235.812V100.407C57.9297 100.008 57.9297 99.6551 57.9881 99.2339C58.3132 95.0218 60.3979 91.0776 63.8217 88.197C67.2454 85.3164 71.7534 83.7139 76.4362 83.7126H340.564C345.252 83.7144 349.765 85.3211 353.189 88.208C356.614 91.0949 358.695 95.0465 359.012 99.264C359.054 99.625 359.07 100.016 359.07 100.407Z" fill="white" stroke="#263238" stroke-width="1.10311" stroke-linecap="round" stroke-linejoin="round"/>
<path d="M66.937 105.491H351.006V230.571C351.006 234.719 349.178 238.698 345.925 241.631C342.672 244.564 338.259 246.212 333.659 246.212H84.2925C79.6918 246.212 75.2795 244.564 72.0262 241.631C68.773 238.698 66.9453 234.719 66.9453 230.571V105.491H66.937Z" fill="#263238"/>
<path opacity="0.2" d="M351.014 105.491V230.571C351.038 234.696 349.245 238.661 346.028 241.594C342.811 244.527 338.433 246.188 333.858 246.212H84.0921C79.5171 246.188 75.1399 244.527 71.9229 241.594C68.7058 238.661 66.9124 234.696 66.9368 230.571V105.491H351.014Z" fill="white"/>
<path d="M359.012 99.264H57.9883C58.3134 95.0519 60.3981 91.1077 63.8219 88.2271C67.2457 85.3465 71.7536 83.744 76.4364 83.7427H340.564C345.247 83.744 349.755 85.3465 353.179 88.2271C356.602 91.1077 358.687 95.0519 359.012 99.264Z" fill="#72BEC0" stroke="#263238" stroke-width="1.10311" stroke-miterlimit="10"/>
<path d="M94.9759 91.4733C94.9759 92.0578 94.7837 92.6292 94.4235 93.1152C94.0634 93.6012 93.5515 93.98 92.9526 94.2037C92.3537 94.4274 91.6946 94.4859 91.0588 94.3718C90.423 94.2578 89.839 93.9763 89.3807 93.563C88.9223 93.1497 88.6101 92.6231 88.4836 92.0498C88.3572 91.4766 88.4221 90.8823 88.6702 90.3423C88.9182 89.8023 89.3383 89.3407 89.8773 89.016C90.4163 88.6912 91.05 88.5179 91.6983 88.5179C92.5676 88.5179 93.4012 88.8293 94.0159 89.3835C94.6306 89.9378 94.9759 90.6895 94.9759 91.4733Z" fill="#263238"/>
<path d="M108.837 91.4733C108.837 92.0578 108.645 92.6292 108.285 93.1152C107.924 93.6012 107.413 93.98 106.814 94.2037C106.215 94.4274 105.556 94.4859 104.92 94.3718C104.284 94.2578 103.7 93.9763 103.242 93.563C102.783 93.1497 102.471 92.6231 102.345 92.0498C102.218 91.4766 102.283 90.8823 102.531 90.3423C102.779 89.8023 103.199 89.3407 103.738 89.016C104.277 88.6912 104.911 88.5179 105.559 88.5179C106.429 88.5179 107.262 88.8293 107.877 89.3835C108.492 89.9378 108.837 90.6895 108.837 91.4733Z" fill="#263238"/>
<path d="M119.42 94.4286C121.231 94.4286 122.698 93.1055 122.698 91.4733C122.698 89.8411 121.231 88.5179 119.42 88.5179C117.61 88.5179 116.143 89.8411 116.143 91.4733C116.143 93.1055 117.61 94.4286 119.42 94.4286Z" fill="#263238"/>
<path d="M351.006 105.491V230.571C351.006 234.719 349.178 238.698 345.925 241.631C342.672 244.564 338.259 246.212 333.658 246.212H84.2924C80.277 246.212 76.3862 244.955 73.2836 242.657C70.181 240.358 68.0588 237.16 67.2788 233.609V233.564C67.0668 232.572 66.9607 231.565 66.9619 230.556V105.491H351.006Z" stroke="#263238" stroke-width="1.10311" stroke-miterlimit="10"/>
<path d="M350.739 124.832C349.523 124.216 348.229 123.734 346.886 123.396L345.326 117.116H338.704L337.161 123.396C335.81 123.728 334.51 124.21 333.291 124.832L327.312 121.38L322.633 125.584L326.394 130.976C325.706 132.075 325.171 133.247 324.801 134.465L317.837 135.856V141.827L324.801 143.233C325.166 144.457 325.702 145.635 326.394 146.738L322.566 152.167L327.253 156.386L333.266 152.934C334.483 153.557 335.78 154.042 337.128 154.378L338.679 160.65H345.276L346.827 154.378C348.171 154.038 349.465 153.554 350.68 152.934L350.989 153.115V124.682L350.739 124.832ZM342.032 146.64C340.339 146.64 338.684 146.187 337.277 145.339C335.87 144.491 334.773 143.286 334.125 141.875C333.478 140.465 333.309 138.913 333.64 137.416C333.971 135.92 334.787 134.545 335.984 133.466C337.182 132.387 338.707 131.653 340.367 131.356C342.028 131.059 343.749 131.213 345.312 131.798C346.875 132.384 348.211 133.374 349.151 134.643C350.09 135.913 350.59 137.406 350.589 138.932C350.589 139.945 350.367 140.948 349.937 141.883C349.507 142.819 348.877 143.669 348.082 144.385C347.287 145.101 346.344 145.669 345.306 146.055C344.268 146.442 343.155 146.641 342.032 146.64Z" fill="#263238"/>
<path d="M231.393 130.886V118.297L216.715 115.357C215.923 112.799 214.803 110.334 213.379 108.01L215.155 105.491H145.85L147.56 107.942C146.118 110.256 144.997 112.721 144.224 115.282L129.537 118.229V130.848L144.224 133.803C144.997 136.383 146.118 138.868 147.56 141.203L139.495 152.641L149.378 161.545L162.055 154.265C164.626 155.57 167.362 156.592 170.203 157.311L173.472 170.508H187.4L190.686 157.281C193.517 156.559 196.244 155.536 198.809 154.235L211.494 161.515L221.369 152.611L213.354 141.173C214.775 138.853 215.894 136.392 216.69 133.841L231.393 130.886ZM180.519 140.857C176.951 140.857 173.464 139.903 170.497 138.116C167.531 136.329 165.218 133.788 163.853 130.816C162.488 127.844 162.13 124.573 162.826 121.418C163.523 118.263 165.241 115.365 167.763 113.09C170.286 110.815 173.501 109.266 177 108.638C180.499 108.011 184.126 108.333 187.423 109.564C190.719 110.795 193.536 112.88 195.519 115.555C197.501 118.229 198.559 121.374 198.559 124.591C198.56 126.728 198.094 128.843 197.188 130.817C196.282 132.791 194.953 134.585 193.278 136.095C191.602 137.606 189.613 138.804 187.424 139.621C185.235 140.438 182.889 140.858 180.519 140.857Z" fill="#263238"/>
<path d="M138.761 217.328L139.353 207.334L127.869 204.416C127.336 202.362 126.547 200.369 125.517 198.475L132.456 189.692L125.017 182.255L114.625 187.519C112.639 186.392 110.515 185.476 108.295 184.789L106.31 174.171L95.2346 173.712L92.0321 184.097C89.7503 184.559 87.5382 185.265 85.4435 186.203L75.7107 179.954L67.4458 186.654L73.3338 196.031C72.0715 197.815 71.0522 199.728 70.298 201.732L66.962 202.228V215.764L69.3973 216.381C69.9025 218.441 70.6839 220.438 71.7242 222.329L66.937 228.382L67.2539 233.564V233.609L72.1995 238.549L82.6079 233.248C84.5907 234.398 86.7221 235.325 88.9546 236.008L90.9062 246.205L90.9979 246.633L102.073 247.16L102.365 246.205L105.276 236.782C107.568 236.32 109.791 235.613 111.898 234.677L121.614 240.918L129.871 234.225L124.033 224.841C125.283 223.06 126.289 221.148 127.027 219.148L138.761 217.328ZM109.346 201.724C107.449 199.821 104.968 198.469 102.218 197.837C99.4685 197.206 96.5726 197.324 93.8972 198.177C91.2218 199.03 88.887 200.579 87.1882 202.628C85.4894 204.678 84.5029 207.136 84.3535 209.691C84.2041 212.246 84.8986 214.783 86.349 216.983C87.7994 219.182 89.9406 220.944 92.5017 222.046C95.0628 223.147 97.9288 223.539 100.737 223.172C103.545 222.805 106.17 221.695 108.278 219.983C111.094 217.689 112.787 214.483 112.987 211.067C113.187 207.651 111.878 204.302 109.346 201.754V201.724Z" fill="#263238"/>
<path d="M227.349 202.431C227.777 200.883 228.004 199.296 228.024 197.701L235.989 193.941L233.787 186.654L224.796 187.03C223.886 185.668 222.803 184.406 221.569 183.27L224.229 175.517L216.974 171.757L210.902 177.728C209.189 177.355 207.435 177.153 205.673 177.126L201.503 169.944L193.43 171.922L193.855 180.036C192.344 180.857 190.945 181.834 189.685 182.947L181.078 180.548L176.908 187.083L183.58 192.55C183.149 194.091 182.928 195.675 182.921 197.265L174.94 201.025L177.142 208.304L186.149 207.92C187.042 209.289 188.12 210.552 189.36 211.68L186.683 219.396L193.947 223.156L199.985 217.23C201.7 217.62 203.462 217.819 205.231 217.824L209.401 225.013L217.474 223.036L217.115 216.102L217.057 214.914C218.589 214.101 220.006 213.124 221.277 212.004L229.876 214.41L233.428 208.815L234.029 207.868L227.349 202.431ZM208.275 206.853C206.205 207.367 204.011 207.316 201.973 206.706C199.935 206.095 198.144 204.952 196.828 203.423C195.511 201.893 194.728 200.045 194.577 198.113C194.427 196.182 194.916 194.253 195.983 192.572C197.049 190.892 198.646 189.535 200.569 188.673C202.492 187.812 204.656 187.485 206.786 187.734C208.916 187.982 210.916 188.796 212.532 190.071C214.148 191.346 215.308 193.025 215.864 194.896C216.606 197.389 216.224 200.045 214.802 202.284C213.381 204.524 211.034 206.166 208.275 206.853Z" fill="#263238"/>
<path d="M319.689 215.245L321.524 205.243L310.298 201.175C310.043 199.043 309.503 196.948 308.689 194.933L316.77 186.819L310.231 178.547L299.089 182.811C297.239 181.474 295.218 180.343 293.068 179.442L292.417 168.546L281.325 166.891L276.78 176.968C274.426 177.218 272.112 177.71 269.883 178.435L260.859 171.148L251.726 177.043L256.463 187.083C255.16 188.55 254.028 190.135 253.086 191.813C252.961 192.046 252.827 192.279 252.71 192.512L240.634 193.114L238.791 203.1L240.609 203.762L250.017 207.184C250.273 209.305 250.814 211.391 251.626 213.395L243.528 221.562L250.075 229.834L261.209 225.547C263.053 226.896 265.072 228.038 267.222 228.946L267.848 239.79L278.931 241.445L283.468 231.443C285.827 231.211 288.146 230.721 290.374 229.984L299.381 237.271L308.555 231.368L303.818 221.321C305.327 219.652 306.602 217.82 307.613 215.869L319.689 215.245ZM288.581 214.794C286.247 216.303 283.47 217.155 280.599 217.241C277.729 217.327 274.895 216.644 272.455 215.278C270.015 213.911 268.08 211.923 266.893 209.565C265.707 207.207 265.323 204.584 265.789 202.029C266.256 199.474 267.553 197.101 269.515 195.21C271.478 193.319 274.018 191.996 276.815 191.407C279.611 190.818 282.539 190.99 285.227 191.902C287.915 192.813 290.243 194.423 291.917 196.528C294.158 199.351 295.064 202.861 294.436 206.287C293.807 209.712 291.695 212.772 288.564 214.794H288.581Z" fill="#263238"/>
<path d="M169.369 141.203H82.1491C76.1105 141.203 71.2153 145.617 71.2153 151.062V259.944C71.2153 265.389 76.1105 269.803 82.1491 269.803H169.369C175.407 269.803 180.303 265.389 180.303 259.944V151.062C180.303 145.617 175.407 141.203 169.369 141.203Z" fill="#72BEC0" stroke="#263238" stroke-width="1.10311" stroke-miterlimit="10"/>
<path opacity="0.2" d="M169.369 141.203H82.1491C76.1105 141.203 71.2153 145.617 71.2153 151.062V259.944C71.2153 265.389 76.1105 269.803 82.1491 269.803H169.369C175.407 269.803 180.303 265.389 180.303 259.944V151.062C180.303 145.617 175.407 141.203 169.369 141.203Z" fill="black"/>
<path d="M190.452 160.778V269.66C190.453 270.955 190.171 272.238 189.623 273.435C189.074 274.632 188.268 275.719 187.253 276.636C186.238 277.552 185.032 278.279 183.705 278.775C182.378 279.271 180.955 279.526 179.519 279.526H92.2989C90.8631 279.525 89.4415 279.269 88.1154 278.773C86.7893 278.276 85.5846 277.549 84.5701 276.633C83.5555 275.717 82.7511 274.63 82.2026 273.433C81.6542 272.237 81.3724 270.954 81.3735 269.66V160.778C81.3735 158.164 82.5243 155.658 84.573 153.809C86.6217 151.96 89.4006 150.921 92.2989 150.919H179.519C182.418 150.919 185.2 151.958 187.25 153.806C189.3 155.655 190.452 158.163 190.452 160.778Z" fill="white" stroke="#263238" stroke-width="1.10311" stroke-linecap="round" stroke-linejoin="round"/>
<path d="M190.452 160.778V166.606H81.3735V160.778C81.3735 158.164 82.5243 155.658 84.573 153.809C86.6217 151.96 89.4006 150.921 92.2989 150.919H179.519C182.418 150.919 185.2 151.958 187.25 153.806C189.3 155.655 190.452 158.163 190.452 160.778Z" fill="#72BEC0" stroke="#263238" stroke-width="1.10311" stroke-miterlimit="10"/>
<path d="M118.47 173.359H91.6316V177.419H118.47V173.359Z" fill="#72BEC0"/>
<path d="M118.47 209.748H91.6316V213.809H118.47V209.748Z" fill="#72BEC0"/>
<path d="M118.47 242.746H91.6316V246.806H118.47V242.746Z" fill="#72BEC0"/>
<path d="M167.851 183.413H91.6316V186.391H167.851V183.413Z" fill="#263238"/>
<path d="M154.107 189.105H91.6316V192.008H154.107V189.105Z" fill="#263238"/>
<path d="M162.288 194.708H91.6316V197.611H162.288V194.708Z" fill="#263238"/>
<path d="M162.288 200.303H91.6316V203.205H162.288V200.303Z" fill="#263238"/>
<path d="M167.851 216.411H91.6316V219.388H167.851V216.411Z" fill="#263238"/>
<path d="M154.107 222.103H91.6316V225.006H154.107V222.103Z" fill="#263238"/>
<path d="M162.288 227.706H91.6316V230.608H162.288V227.706Z" fill="#263238"/>
<path d="M167.851 252.642H91.6316V255.62H167.851V252.642Z" fill="#263238"/>
<path d="M154.107 258.342H91.6316V261.245H154.107V258.342Z" fill="#263238"/>
<path d="M162.288 263.944H91.6316V266.847H162.288V263.944Z" fill="#263238"/>
<path d="M313.392 75.4181V119.425C313.392 120.969 313.055 122.498 312.399 123.925C311.744 125.351 310.783 126.647 309.571 127.739C308.36 128.83 306.922 129.696 305.339 130.286C303.757 130.877 302.061 131.18 300.348 131.179H187.942C186.229 131.18 184.533 130.877 182.951 130.286C181.368 129.696 179.93 128.83 178.719 127.739C177.508 126.647 176.547 125.351 175.891 123.925C175.236 122.498 174.898 120.969 174.898 119.425V75.4181C174.9 72.2994 176.275 69.309 178.721 67.1038C181.167 64.8986 184.483 63.6588 187.942 63.6568H300.348C303.808 63.6568 307.126 64.8959 309.572 67.1016C312.018 69.3073 313.392 72.2988 313.392 75.4181Z" fill="white" stroke="#222221" stroke-width="1.10311" stroke-miterlimit="10"/>
<path d="M313.392 75.4181V76.4258H174.898V75.4181C174.9 72.2994 176.275 69.309 178.721 67.1038C181.167 64.8986 184.483 63.6588 187.942 63.6568H300.348C303.808 63.6568 307.126 64.8959 309.572 67.1016C312.018 69.3073 313.392 72.2988 313.392 75.4181Z" fill="#72BEC0" stroke="#263238" stroke-width="1.10311" stroke-miterlimit="10"/>
<path d="M195.248 72.1469C194.968 72.3997 194.611 72.5721 194.223 72.642C193.835 72.712 193.432 72.6766 193.066 72.5401C192.7 72.4036 192.387 72.1723 192.167 71.8754C191.947 71.5785 191.829 71.2294 191.829 70.8722C191.829 70.5151 191.947 70.166 192.167 69.8691C192.387 69.5722 192.7 69.3409 193.066 69.2044C193.432 69.0679 193.835 69.0325 194.223 69.1024C194.611 69.1724 194.968 69.3448 195.248 69.5976C195.62 69.9369 195.829 70.3949 195.829 70.8722C195.829 71.3496 195.62 71.8076 195.248 72.1469Z" fill="#263238"/>
<path d="M204.522 72.1469C204.242 72.3997 203.886 72.5721 203.497 72.642C203.109 72.712 202.706 72.6766 202.34 72.5401C201.974 72.4036 201.661 72.1723 201.441 71.8754C201.221 71.5785 201.103 71.2294 201.103 70.8722C201.103 70.5151 201.221 70.166 201.441 69.8691C201.661 69.5722 201.974 69.3409 202.34 69.2044C202.706 69.0679 203.109 69.0325 203.497 69.1024C203.886 69.1724 204.242 69.3448 204.522 69.5976C204.894 69.9369 205.103 70.3949 205.103 70.8722C205.103 71.3496 204.894 71.8076 204.522 72.1469Z" fill="#263238"/>
<path d="M213.796 72.1469C213.516 72.3997 213.16 72.5721 212.771 72.642C212.383 72.712 211.98 72.6766 211.614 72.5401C211.248 72.4036 210.935 72.1723 210.715 71.8754C210.495 71.5785 210.377 71.2294 210.377 70.8722C210.377 70.5151 210.495 70.166 210.715 69.8691C210.935 69.5722 211.248 69.3409 211.614 69.2044C211.98 69.0679 212.383 69.0325 212.771 69.1024C213.16 69.1724 213.516 69.3448 213.796 69.5976C214.168 69.9369 214.377 70.3949 214.377 70.8722C214.377 71.3496 214.168 71.8076 213.796 72.1469Z" fill="#263238"/>
<path d="M229 84.5173H183.73V119.801H229V84.5173Z" stroke="#263238" stroke-width="1.10311" stroke-linecap="round" stroke-linejoin="round" stroke-dasharray="4.41 4.41"/>
<path d="M288.089 84.5173H235.989V86.9989H288.089V84.5173Z" fill="#263238"/>
<path d="M275.954 89.6534H235.989V92.1275H275.954V89.6534Z" fill="#263238"/>
<path d="M295.495 94.767H235.989V97.2712H295.495V94.767Z" fill="#263238"/>
<path d="M286.663 99.7528H235.989V102.257H286.663V99.7528Z" fill="#263238"/>
<path d="M317.179 184.639H291.7C288.692 184.639 286.254 186.837 286.254 189.549V203.032C286.254 205.744 288.692 207.943 291.7 207.943H317.179C320.186 207.943 322.625 205.744 322.625 203.032V189.549C322.625 186.837 320.186 184.639 317.179 184.639Z" fill="white" stroke="#263238" stroke-width="1.10311" stroke-linecap="round" stroke-linejoin="round"/>
<path d="M297.988 191.647L290.991 195.603L297.488 200.792" stroke="#263238" stroke-width="1.10311" stroke-linecap="round" stroke-linejoin="round"/>
<path d="M310.732 201.168L317.02 196.34L309.764 192.053" stroke="#263238" stroke-width="1.10311" stroke-linecap="round" stroke-linejoin="round"/>
<path d="M301.391 204.145L306.554 189.542" stroke="#263238" stroke-width="1.10311" stroke-linecap="round" stroke-linejoin="round"/>
<path d="M247.581 331.233C247.581 331.233 223.395 337.483 220.018 338.565C216.948 339.543 208.625 342.175 202.378 341.355C201.775 341.277 201.179 341.162 200.594 341.009C194.264 339.31 191.42 337.723 190.586 334.136C189.752 330.549 192.904 327.902 195.94 326.21C198.976 324.518 215.439 322.751 215.439 322.751L219.417 323.804L247.581 331.233Z" fill="#72BEC0"/>
<path d="M202.378 341.355C201.775 341.277 201.179 341.162 200.594 341.009C194.264 339.31 191.42 337.723 190.586 334.136C189.752 330.549 192.904 327.902 195.94 326.21C198.976 324.518 215.439 322.751 215.439 322.751L219.417 323.804C215.814 325.308 202.403 326.127 199.476 327.646C196.549 329.165 195.139 332.023 196.866 335.918C197.791 337.949 200.26 339.942 202.378 341.355Z" fill="white"/>
<path d="M243.945 332.121C243.945 332.121 225.78 336.362 218.575 339.077C211.369 341.792 197.633 342.98 192.721 337.385C187.808 331.79 192.154 326.962 197.049 325.887C201.945 324.811 211.844 323.119 217.249 323.804" stroke="#263238" stroke-width="1.10311" stroke-linecap="round" stroke-linejoin="round"/>
<path d="M202.737 341.062C202.737 341.062 193.496 336.49 196.565 330.083C198.834 325.36 211.16 326.383 217.265 323.804" stroke="#263238" stroke-width="1.10311" stroke-linecap="round" stroke-linejoin="round"/>
<path d="M321.249 342.371C320.998 344.627 320.123 346.74 317.621 348.071C315.953 348.958 313.584 349.485 310.19 349.454C301.708 349.357 285.762 343.89 285.762 343.89L270.833 336.445L278.598 325.368L280.725 322.36L286.212 323.473C286.212 323.473 290.758 325.797 295.328 327.646C299.898 329.496 310.999 329.902 314.91 332.737C318.822 335.572 321.674 338.656 321.249 342.371Z" fill="#72BEC0"/>
<path d="M321.248 342.371C320.998 344.627 320.123 346.74 317.621 348.071C318.341 345.853 318.194 343.479 317.204 341.348C315.536 337.971 310.106 334.993 302.967 334.497C295.828 334.001 290.365 330.993 287.505 329.647C285.27 328.601 280.558 326.315 278.598 325.368L280.724 322.36L286.212 323.473C286.212 323.473 290.757 325.797 295.328 327.646C299.898 329.496 310.999 329.902 314.91 332.737C318.821 335.572 321.674 338.656 321.248 342.371Z" fill="white"/>
<path d="M274.144 338.535C284.89 344.168 296.767 347.825 309.089 349.296C311.808 349.59 314.969 349.635 316.787 347.792C317.27 347.26 317.63 346.646 317.845 345.986C318.06 345.326 318.126 344.633 318.038 343.95C317.712 340.491 314.485 337.753 310.949 336.377C307.413 335.001 303.518 334.685 299.756 333.926C296.016 333.165 292.399 331.972 288.998 330.376C286.296 329.105 283.685 327.564 280.708 326.992C277.73 326.421 274.186 327.112 272.593 329.459" stroke="#263238" stroke-width="1.10311" stroke-linecap="round" stroke-linejoin="round"/>
<path d="M315.786 348.732C317.183 348.129 318.405 347.24 319.353 346.135C320.302 345.031 320.951 343.741 321.249 342.371C321.791 339.114 319.731 335.836 316.837 333.835C313.943 331.835 310.315 330.887 306.737 330.218C303.159 329.549 299.498 329.098 296.07 327.872C290.841 326.022 285.678 322.382 280.224 323.683" stroke="#263238" stroke-width="1.10311" stroke-linecap="round" stroke-linejoin="round"/>
<path d="M290.991 222.035L265.729 213.372L265.412 213.26C265.412 213.26 265.504 212.658 265.579 211.756C265.737 209.936 265.821 206.973 264.87 205.973C263.461 204.469 259.474 205.732 255.579 204.123C251.685 202.514 244.487 205.394 244.487 205.394C244.487 205.394 239.283 204.529 236.981 207.913C235.814 210.643 236.214 214.681 236.214 214.681L235.738 214.831C232.728 215.847 216.348 221.404 212.887 223.637C209.059 226.081 204.822 251.175 203.463 258.545C202.103 265.915 199.685 272.555 200.911 275.089C202.137 277.623 219.734 289.843 229.859 292.994C239.984 296.145 275.887 295.25 275.887 295.25C275.887 295.25 276.471 295.107 277.514 294.807C283.585 293.047 305.127 285.783 316.561 268.727C316.578 268.757 305.503 236.023 290.991 222.035ZM222.736 264.245C220.877 265.433 221.902 270.036 221.902 270.036L218.742 267.524L226.681 249.92L230.067 263.456C230.067 263.456 224.596 263.065 222.736 264.245ZM286.254 275.427C285.378 275.834 288.756 267.374 287.155 265.456C285.553 263.538 280.724 263.719 280.724 263.719L281.133 261.41L283.994 248.175L284.944 247.16C284.944 247.16 294.769 262.343 296.529 267.697C296.529 267.712 285.82 275.427 286.254 275.427Z" fill="#72BEC0"/>
<path d="M243.295 167.132L230.251 179.615C230.251 179.615 228.458 181.051 229.167 184.669C229.875 188.286 231.543 191.437 232.803 191.647C233.8 191.805 234.81 191.885 235.822 191.888C235.822 191.888 238.616 197.347 240.601 199.491C240.601 199.491 241.285 207.92 240.918 210.259C240.918 210.259 245.605 213.951 250.017 214.418C254.428 214.884 261.242 208.793 261.242 208.793L262.91 201.333C262.91 201.333 266.913 195.858 267.18 194.399C267.447 192.941 269.282 193.317 270.183 192.595C271.083 191.873 273.16 188.662 273.519 185.624C273.877 182.586 273.886 179.096 269.974 180.119C266.58 179.299 268.707 172.832 268.707 172.832L262.743 168.095L243.295 167.132Z" fill="white"/>
<path opacity="0.5" d="M265.729 213.372C265.532 213.837 265.307 214.292 265.054 214.734C262.902 218.388 253.528 225.359 253.528 225.359L250.692 217.501L249.141 225.359C246.013 224.126 236.472 216.674 236.472 216.674C236.472 216.674 236.147 215.974 235.755 214.884L236.231 214.734C236.231 214.734 235.83 210.665 236.998 207.966C239.283 204.582 244.504 205.446 244.504 205.446C244.504 205.446 251.701 202.566 255.596 204.176C259.491 205.785 263.477 204.536 264.887 206.025C266.296 207.514 265.429 213.29 265.429 213.29L265.729 213.372Z" fill="white"/>
<path opacity="0.2" d="M290.991 222.036L265.729 213.372L265.412 213.26C265.412 213.26 265.504 212.658 265.579 211.756L265.053 214.711L261.317 219.283C265.311 220.609 269.211 222.156 272.993 223.916C274.804 224.79 276.281 226.136 277.233 227.777C278.185 229.418 278.567 231.28 278.331 233.12L273.677 269.028L271.767 289.415L277.53 294.807C283.602 293.047 305.144 285.783 316.578 268.727C316.578 268.757 305.502 236.023 290.991 222.036ZM286.254 275.428C285.378 275.834 288.756 267.374 287.154 265.456C285.553 263.538 280.724 263.719 280.724 263.719L281.133 261.41L283.994 248.175L284.944 247.16C284.944 247.16 294.769 262.343 296.529 267.697C296.529 267.712 285.82 275.428 286.254 275.428Z" fill="black"/>
<path opacity="0.2" d="M231.744 265.456L227.815 253.619C227.815 253.619 220.768 231.954 215.939 226.615L217.207 241.851C217.207 241.851 213.037 260.049 209.226 265.456C205.414 270.863 204.563 272.224 209.226 272.224C213.888 272.224 225.238 280.376 225.238 280.376L224.363 273.608L231.744 265.456ZM221.844 270.036L218.683 267.524L226.623 249.92L230.009 263.456C230.009 263.456 224.571 263.087 222.711 264.268C220.852 265.448 221.844 270.036 221.844 270.036Z" fill="black"/>
<path d="M240.601 199.491C240.601 199.491 241.32 205.875 240.601 208.793" stroke="#263238" stroke-width="1.10311" stroke-linecap="round" stroke-linejoin="round"/>
<path d="M261.968 207.936C261.976 205.883 262.239 203.837 262.752 201.837" stroke="#263238" stroke-width="1.10311" stroke-linecap="round" stroke-linejoin="round"/>
<path d="M263.861 171.892C263.861 171.892 268.148 176.743 267.923 180.412C267.697 184.082 267.38 188.429 267.489 192.685C267.597 196.941 259.908 205.86 255.955 206.65C252.001 207.439 248.599 207.642 246.072 205.364C243.545 203.085 241.018 199.919 237.732 195.858C234.446 191.798 235.23 182.886 235.23 182.886" stroke="#263238" stroke-width="1.10311" stroke-linecap="round" stroke-linejoin="round"/>
<path d="M253.536 186.278C253.275 187.61 253.163 188.963 253.202 190.316C253.117 191.456 253.51 192.584 254.303 193.475C254.779 193.911 255.463 194.264 255.554 194.866C255.552 195.137 255.469 195.402 255.313 195.633C255.158 195.865 254.935 196.054 254.67 196.182C254.135 196.425 253.62 196.701 253.127 197.009" stroke="#263238" stroke-width="1.10311" stroke-linecap="round" stroke-linejoin="round"/>
<path d="M246.756 197.475C246.756 197.475 247.248 200.355 251.526 200.957" stroke="#263238" stroke-width="1.10311" stroke-linecap="round" stroke-linejoin="round"/>
<path d="M247.198 188.474C247.198 189.308 246.797 189.978 246.305 189.978C245.813 189.978 245.413 189.308 245.413 188.474C245.413 187.639 245.813 186.97 246.305 186.97C246.797 186.97 247.198 187.647 247.198 188.474Z" fill="#263238"/>
<path d="M259.966 188.835C259.966 189.669 259.566 190.339 259.074 190.339C258.582 190.339 258.181 189.662 258.181 188.835C258.181 188.007 258.582 187.331 259.074 187.331C259.566 187.331 259.966 188 259.966 188.835Z" fill="#263238"/>
<path d="M257.389 185.187C257.389 185.187 261.559 181.427 265.054 185.624" stroke="#263238" stroke-width="2.20621" stroke-linecap="round" stroke-linejoin="round"/>
<path d="M248.607 185.263C248.607 185.263 245.972 182.601 241.818 185.263" stroke="#263238" stroke-width="2.20621" stroke-linecap="round" stroke-linejoin="round"/>
<path d="M240.918 203.04C240.918 203.04 243.461 209.357 249.141 211.154C254.82 212.951 262.36 203.634 262.36 203.634L261.968 202.423C261.968 202.423 257.022 208.214 251.526 207.229C246.03 206.244 240.601 199.521 240.601 199.521L240.918 203.04Z" fill="#263238"/>
<path d="M235.822 191.647C235.822 191.647 232.436 192.723 231.535 190.346C230.634 187.97 227.548 181.706 230.251 179.615C232.953 177.525 235.121 182.375 235.121 182.375" stroke="#263238" stroke-width="1.10311" stroke-linecap="round" stroke-linejoin="round"/>
<path d="M267.48 192.941C267.48 192.941 270.625 193.512 271.525 191.136C272.426 188.759 275.512 182.495 272.81 180.405C270.108 178.314 267.939 183.165 267.939 183.165" stroke="#263238" stroke-width="1.10311" stroke-linecap="round" stroke-linejoin="round"/>
<path d="M235.121 188.474C236.297 188.307 237.359 187.742 238.09 186.895C238.537 186.151 238.82 185.336 238.924 184.496C239.234 182.896 239.39 181.276 239.391 179.653C239.355 179.019 239.419 178.383 239.583 177.765C239.834 177.144 240.219 176.574 240.717 176.088C241.893 174.84 243.319 173.787 244.445 172.494C245.049 171.883 245.508 171.168 245.795 170.393C246.082 169.617 246.19 168.797 246.113 167.982C248.694 169.9 251.708 171.285 254.946 172.04C258.184 172.795 261.565 172.901 264.853 172.351C270.816 171.298 276.529 166.583 275.837 160.657C275.706 159.664 275.234 158.732 274.486 157.993C273.738 157.254 272.752 156.745 271.667 156.536C268.723 155.875 266.079 157.288 263.41 158.198C258.548 159.853 253.786 157.01 248.874 156.536C244.704 156.123 239.508 156.596 237.323 160.364C237.323 160.364 229.817 161.161 226.481 166.756C223.145 172.351 229.458 180.089 229.458 180.089C229.458 180.089 231.96 177.322 235.238 182.916L235.121 188.474Z" fill="#263238"/>
<path d="M264.378 170.463C264.378 170.463 262.426 179.638 267.522 184.082C267.522 184.082 268.64 181.322 269.766 180.645C270.577 179.017 270.921 177.231 270.765 175.451C270.609 173.672 269.958 171.956 268.873 170.463C265.103 165.124 264.378 170.463 264.378 170.463Z" fill="#263238"/>
<path opacity="0.2" d="M273.669 160.026C273.221 161.277 272.463 162.421 271.451 163.368C270.439 164.315 269.201 165.042 267.831 165.493C260.759 168.095 253.895 165.214 246.806 164.65C241.026 164.184 234.646 168.892 234.237 174.246" stroke="white" stroke-width="1.10311" stroke-linecap="round" stroke-linejoin="round"/>
<path opacity="0.2" d="M229.875 172.832C229.962 170.719 230.714 168.672 232.043 166.93C233.372 165.189 235.224 163.824 237.381 162.996" stroke="white" stroke-width="1.10311" stroke-linecap="round" stroke-linejoin="round"/>
<path d="M238.966 207.936C242.076 210.858 245.829 213.163 249.983 214.704C249.983 214.704 258.448 212.485 262.752 207.184" stroke="#263238" stroke-width="1.10311" stroke-linecap="round" stroke-linejoin="round"/>
<path d="M247.617 194.597C251.377 193.042 253.026 189.033 251.302 185.643C249.577 182.253 245.132 180.766 241.372 182.321C237.612 183.876 235.963 187.884 237.687 191.274C239.412 194.664 243.857 196.152 247.617 194.597Z" stroke="#263238" stroke-width="1.10311" stroke-linecap="round" stroke-linejoin="round"/>
<path d="M262.129 195.191C266.235 194.737 269.154 191.367 268.65 187.666C268.146 183.964 264.409 181.332 260.304 181.786C256.198 182.241 253.279 185.61 253.783 189.312C254.287 193.013 258.024 195.646 262.129 195.191Z" stroke="#263238" stroke-width="1.10311" stroke-linecap="round" stroke-linejoin="round"/>
<path d="M240.601 205.416C239.842 205.596 239.131 205.912 238.51 206.344C237.89 206.777 237.373 207.318 236.989 207.936C235.663 210.041 236.464 216.666 236.464 216.666C236.464 216.666 243.311 222.772 249.141 225.352L250.859 216.636L253.528 225.352C253.528 225.352 262.551 219.599 265.053 214.734C265.053 214.734 265.887 209.056 265.053 207.214C264.864 206.702 264.503 206.256 264.021 205.937C263.538 205.617 262.958 205.441 262.36 205.431" stroke="#263238" stroke-width="1.10311" stroke-linecap="round" stroke-linejoin="round"/>
<path d="M229.876 263.726C229.876 263.726 227.198 247.558 223.637 240.963" stroke="#263238" stroke-width="1.10311" stroke-linecap="round" stroke-linejoin="round"/>
<path d="M215.939 226.615C218.013 229.272 219.864 232.065 221.477 234.97" stroke="#263238" stroke-width="1.10311" stroke-linecap="round" stroke-linejoin="round"/>
<path d="M286.254 238.685C286.973 235.982 287.958 233.342 289.198 230.796" stroke="#263238" stroke-width="1.10311" stroke-linecap="round" stroke-linejoin="round"/>
<path d="M280.724 263.726C280.724 263.726 282.651 252.642 284.953 243.513" stroke="#263238" stroke-width="1.10311" stroke-linecap="round" stroke-linejoin="round"/>
<path d="M283.994 248.16C285.856 245.934 288.474 244.318 291.45 243.558" stroke="#263238" stroke-width="1.10311" stroke-linecap="round" stroke-linejoin="round"/>
<path d="M265.42 213.26C265.42 213.26 280.958 218.862 290.991 222.043C290.991 222.043 303.334 232.503 316.57 268.757C316.57 268.757 304.443 287.151 281.375 293.047" stroke="#263238" stroke-width="1.10311" stroke-linecap="round" stroke-linejoin="round"/>
<path d="M285.378 276.082L296.529 267.712C296.529 267.712 302.425 263.674 308.555 266.434" stroke="#263238" stroke-width="1.10311" stroke-linecap="round" stroke-linejoin="round"/>
<path d="M284.953 247.16C284.953 247.16 294.169 259.44 296.529 267.712" stroke="#263238" stroke-width="1.10311" stroke-linecap="round" stroke-linejoin="round"/>
<path d="M221.969 270.502L218.708 267.712C218.708 267.712 213.871 266.96 208.383 270.261" stroke="#263238" stroke-width="1.10311" stroke-linecap="round" stroke-linejoin="round"/>
<path d="M218.708 267.712C218.708 267.712 222.762 255.68 226.756 249.521" stroke="#263238" stroke-width="1.10311" stroke-linecap="round" stroke-linejoin="round"/>
<path d="M236.231 214.734C236.231 214.734 213.871 222.299 211.678 224.51C209.484 226.72 201.153 269.02 200.927 273.863C200.736 278.195 218.149 287.918 226.781 292.017" stroke="#263238" stroke-width="1.10311" stroke-linecap="round" stroke-linejoin="round"/>
<path d="M252.952 229.029C252.952 229.292 252.866 229.55 252.703 229.769C252.541 229.987 252.311 230.158 252.041 230.259C251.771 230.36 251.474 230.386 251.188 230.335C250.902 230.283 250.639 230.156 250.432 229.97C250.226 229.784 250.085 229.547 250.028 229.289C249.971 229.031 250 228.763 250.112 228.52C250.224 228.277 250.413 228.069 250.656 227.922C250.899 227.776 251.184 227.698 251.476 227.698C251.67 227.697 251.863 227.731 252.042 227.797C252.222 227.864 252.385 227.962 252.522 228.086C252.66 228.209 252.768 228.357 252.842 228.519C252.916 228.681 252.953 228.854 252.952 229.029Z" fill="#263238"/>
<path d="M278.823 299.883H227.949C227.633 299.883 227.329 299.769 227.106 299.568C226.882 299.366 226.756 299.092 226.756 298.807C226.756 298.522 226.882 298.248 227.106 298.047C227.329 297.845 227.633 297.732 227.949 297.732H278.823C279.139 297.732 279.443 297.845 279.666 298.047C279.89 298.248 280.016 298.522 280.016 298.807C280.016 299.092 279.89 299.366 279.666 299.568C279.443 299.769 279.139 299.883 278.823 299.883Z" fill="#263238"/>
<path d="M280.608 296.288L287.422 267.411C287.527 266.963 287.521 266.5 287.402 266.055C287.283 265.61 287.056 265.194 286.736 264.839C286.416 264.483 286.012 264.197 285.553 264.001C285.095 263.804 284.593 263.703 284.086 263.704H224.621C224.118 263.704 223.621 263.805 223.166 263.999C222.711 264.193 222.309 264.476 221.99 264.827C221.671 265.178 221.442 265.589 221.321 266.029C221.199 266.469 221.187 266.929 221.285 267.374L227.399 295.288C227.548 295.973 227.953 296.592 228.546 297.042C229.139 297.492 229.885 297.746 230.659 297.762L277.188 298.724C277.984 298.74 278.76 298.506 279.384 298.061C280.008 297.616 280.441 296.989 280.608 296.288Z" fill="white" stroke="#263238" stroke-width="1.10311" stroke-linecap="round" stroke-linejoin="round"/>
<path d="M258.907 280.368C258.905 281.214 258.626 282.041 258.103 282.743C257.581 283.446 256.839 283.993 255.972 284.316C255.104 284.639 254.151 284.722 253.231 284.556C252.311 284.39 251.466 283.982 250.803 283.384C250.14 282.785 249.689 282.022 249.507 281.193C249.324 280.363 249.419 279.503 249.778 278.721C250.137 277.94 250.746 277.272 251.526 276.802C252.306 276.332 253.223 276.082 254.161 276.082C254.785 276.082 255.403 276.193 255.979 276.408C256.556 276.624 257.079 276.94 257.52 277.338C257.961 277.736 258.31 278.208 258.548 278.728C258.786 279.248 258.908 279.806 258.907 280.368Z" fill="#263238"/>
<path d="M268.24 266.464H275.303" stroke="#263238" stroke-width="1.10311" stroke-linecap="round" stroke-linejoin="round"/>
<path d="M234.504 266.464H261.317" stroke="#263238" stroke-width="1.10311" stroke-linecap="round" stroke-linejoin="round"/>
<path d="M280.724 326.947L275.303 339.776C275.303 339.776 261.476 336.633 243.77 333.362C225.247 329.94 205.906 325.511 195.873 309.636C194.656 307.703 193.838 305.417 194.414 303.252C195.857 297.769 203.771 296.28 208.984 295.732C212.261 295.412 215.554 295.246 218.85 295.235C220.518 295.235 226.064 294.416 227.407 295.31C229.424 296.637 231.577 297.788 233.837 298.747C236.798 299.883 280.016 297.732 280.016 297.732C280.768 296.253 281.228 294.668 281.375 293.047C288.172 289.934 303.893 287.302 310.565 288.467C321.015 290.295 327.112 295.792 325.952 301.552C324.793 307.312 301.708 322.758 280.724 326.947Z" fill="#263238"/>
<path d="M280.724 326.947C280.724 326.947 267.572 323.804 256.83 317.261C246.088 310.719 237.698 303.124 222.728 304.695" stroke="white" stroke-width="1.10311" stroke-linecap="round" stroke-linejoin="round"/>
<path d="M254.37 315.72C261.159 313.96 266.138 309.997 271.584 306.199C277.328 302.042 283.497 298.386 290.007 295.28" stroke="white" stroke-width="1.10311" stroke-linecap="round" stroke-linejoin="round"/>
<path d="M251.976 189.542H253.97" stroke="#263238" stroke-width="1.10311" stroke-linecap="round" stroke-linejoin="round"/>
</svg>
