<svg width="34" height="32" viewBox="0 0 34 32" fill="none" xmlns="http://www.w3.org/2000/svg">
<g clip-path="url(#clip0_259_17)">
<path d="M29.8542 4H5.10425C2.82622 4 0.979248 5.791 0.979248 8V24C0.979248 26.209 2.82622 28 5.10425 28H29.8542C32.1323 28 33.9792 26.209 33.9792 24V8C33.9792 5.791 32.1323 4 29.8542 4ZM23.0645 14.6738L31.7959 7.41794C31.8564 7.60544 31.9167 7.79294 31.9167 8V24C31.9167 24.1387 31.8623 24.2618 31.8342 24.3926L23.0645 14.6738ZM29.8542 6C29.9912 6 30.1121 6.05081 30.241 6.07619L17.4792 16.6836L4.71753 6.07619C4.84644 6.05081 4.96729 6 5.10425 6H29.8542ZM3.12335 24.3906C3.09512 24.2598 3.04175 24.1387 3.04175 24V8C3.04175 7.79294 3.10317 7.60544 3.16363 7.41794L11.892 14.6719L3.12335 24.3906ZM5.10425 26C4.89581 26 4.70644 25.9414 4.51611 25.8848L13.459 15.9746L16.8085 18.7577C17.0009 18.9199 17.2406 19 17.4792 19C17.7179 19 17.9576 18.9199 18.1499 18.7578L21.4995 15.9746L30.4424 25.8848C30.2531 25.9414 30.0637 26 29.8542 26H5.10425Z" fill="#72BEC0"/>
</g>
<defs>
<clipPath id="clip0_259_17">
<rect width="33" height="32" fill="white" transform="translate(0.979248)"/>
</clipPath>
</defs>
</svg>
