<svg width="32" height="32" viewBox="0 0 32 32" fill="none" xmlns="http://www.w3.org/2000/svg">
<path d="M28 4H4C1.791 4 0 5.791 0 8V24C0 26.209 1.791 28 4 28H28C30.209 28 32 26.209 32 24V8C32 5.791 30.209 4 28 4ZM21.416 14.6738L29.8828 7.41794C29.9414 7.60544 30 7.79294 30 8V24C30 24.1387 29.9473 24.2618 29.9199 24.3926L21.416 14.6738ZM28 6C28.1328 6 28.25 6.05081 28.375 6.07619L16 16.6836L3.625 6.07619C3.75 6.05081 3.86719 6 4 6H28ZM2.07912 24.3906C2.05175 24.2598 2 24.1387 2 24V8C2 7.79294 2.05956 7.60544 2.11819 7.41794L10.5821 14.6719L2.07912 24.3906ZM4 26C3.79787 26 3.61425 25.9414 3.42969 25.8848L12.1016 15.9746L15.3496 18.7577C15.5361 18.9199 15.7686 19 16 19C16.2314 19 16.4639 18.9199 16.6504 18.7578L19.8984 15.9746L28.5703 25.8848C28.3867 25.9414 28.2031 26 28 26H4Z" fill="white"/>
</svg>
