<svg width="34" height="32" viewBox="0 0 34 32" fill="none" xmlns="http://www.w3.org/2000/svg">
<g clip-path="url(#clip0_259_26)">
<path d="M17.4793 0.230713C8.50048 0.230713 1.21729 7.29321 1.21729 15.9999C1.21729 24.7067 8.50048 31.7692 17.4793 31.7692C26.4581 31.7692 33.7413 24.7067 33.7413 15.9999C33.7413 7.29321 26.4581 0.230713 17.4793 0.230713ZM17.4793 2.69225C25.0451 2.69225 31.2029 8.6634 31.2029 15.9999C31.2029 16.5769 31.1582 17.1346 31.0839 17.6922C30.831 17.6297 30.0377 17.4326 29.18 17.423C28.4115 17.4134 27.4894 17.5384 26.9985 17.6153C27.1274 17.1057 27.2365 16.5624 27.2365 15.9999C27.2365 14.5961 26.6911 13.2307 25.7293 12.0769C26.0863 10.9903 26.5821 8.51918 25.6103 7.57686C23.2305 7.57686 21.8919 9.04321 21.644 9.34609C20.5532 8.96148 19.3732 8.76917 18.1139 8.76917C16.8843 8.76917 15.6944 8.94225 14.6235 9.30763C14.2913 8.9182 12.9775 7.57686 10.6968 7.57686C9.74493 8.49994 10.2209 10.8797 10.5779 11.9999C9.5714 13.173 8.99132 14.5624 8.99132 15.9999C8.99132 16.5288 9.03595 17.0576 9.14997 17.5384C8.73351 17.5047 7.04285 17.3846 6.37353 17.3846C5.70422 17.3846 4.60355 17.524 3.87474 17.6922C3.80037 17.1346 3.75575 16.5769 3.75575 15.9999C3.75575 8.6634 9.91349 2.69225 17.4793 2.69225ZM6.37353 17.6922C7.03294 17.6922 9.06568 17.8701 9.26896 17.8846C9.30367 17.9999 9.34333 18.1153 9.38795 18.2307C8.71864 18.1778 7.28579 18.0865 6.37353 18.1922C5.25799 18.3221 4.43499 18.7499 4.11272 18.923C4.0433 18.6201 3.96398 18.3076 3.9144 17.9999C4.61347 17.8413 5.75379 17.6922 6.37353 17.6922ZM29.18 17.7307C30.0129 17.7403 30.831 17.9134 31.0442 17.9615C31.0244 18.1009 30.9897 18.2451 30.9649 18.3846C30.8558 18.3557 29.8642 18.0624 28.823 18.0384C28.3124 18.024 27.5042 18.1057 26.8795 18.1538C26.9093 18.0769 26.9341 17.9999 26.9589 17.923C27.3902 17.8653 28.4165 17.7211 29.18 17.7307ZM28.7834 18.3461C29.7948 18.3701 30.8657 18.6778 30.9252 18.6922C29.9882 23.1105 26.7903 26.7067 22.5562 28.3461V26.2307C22.5562 24.899 21.7382 23.1682 20.573 22.3076C23.8552 21.8509 25.8979 20.4422 26.7605 18.4615C27.3505 18.4134 28.2529 18.3317 28.7834 18.3461ZM7.40478 18.4615C8.31208 18.4663 9.12519 18.5095 9.50695 18.5384C10.3895 20.4759 12.4173 21.8557 15.6548 22.3076C15.2879 22.5817 14.9458 22.9374 14.6632 23.3461C14.6533 23.3605 14.6334 23.3701 14.6235 23.3845C13.9889 24.1249 12.799 24.0769 11.6884 24.0769C10.5531 24.0769 9.87383 23.1971 9.26896 22.423C8.65914 21.6538 7.86587 21.5865 7.44445 21.5384C7.02302 21.4951 6.909 21.7019 7.12714 21.8461C8.36167 22.6874 8.84754 23.7163 9.34829 24.6153C9.79946 25.423 10.7266 25.8461 11.7678 25.8461H13.7113C13.6964 25.9711 13.6716 26.1105 13.6716 26.2307V28.7692C8.99628 27.4615 5.37698 23.8269 4.19204 19.2307C4.43994 19.0961 5.31253 18.6249 6.4132 18.4999C6.67597 18.4711 7.02799 18.4615 7.40478 18.4615ZM18.1139 25.8461C18.4659 25.8461 18.7485 26.1201 18.7485 26.4615V29.2307C18.3271 29.2692 17.9106 29.3076 17.4793 29.3076V26.4615C17.4793 26.1201 17.7619 25.8461 18.1139 25.8461ZM15.5755 26.5769C15.9275 26.5769 16.2101 26.8509 16.2101 27.1922V29.2307C15.7886 29.1922 15.3523 29.149 14.9408 29.0769V27.1922C14.9408 26.8509 15.2234 26.5769 15.5755 26.5769ZM20.6524 26.5769C21.0044 26.5769 21.287 26.8509 21.287 27.1922V28.7692C20.8705 28.8845 20.4491 28.9999 20.0178 29.0769V27.1922C20.0178 26.8509 20.3004 26.5769 20.6524 26.5769Z" fill="#72BEC0"/>
</g>
<defs>
<clipPath id="clip0_259_26">
<rect width="33" height="32" fill="white" transform="translate(0.979248)"/>
</clipPath>
</defs>
</svg>
