<svg width="42" height="42" viewBox="0 0 42 42" fill="none" xmlns="http://www.w3.org/2000/svg">
<path d="M9.84375 6.5625C8.04686 6.5625 6.5625 8.04686 6.5625 9.84375V32.1562C6.5625 33.9531 8.04686 35.4375 9.84375 35.4375H32.1562C33.9531 35.4375 35.4375 33.9531 35.4375 32.1562V9.84375C35.4375 8.04686 33.9531 6.5625 32.1562 6.5625H9.84375ZM9.84375 9.1875H32.1562C32.5329 9.1875 32.8125 9.46714 32.8125 9.84375V32.1562C32.8125 32.5329 32.5329 32.8125 32.1562 32.8125H9.84375C9.46714 32.8125 9.1875 32.5329 9.1875 32.1562V9.84375C9.1875 9.46714 9.46714 9.1875 9.84375 9.1875ZM13.6992 11.4434C12.4523 11.4434 11.4434 12.4537 11.4434 13.6992C11.4434 14.9448 12.451 15.9551 13.6992 15.9551C14.9435 15.9551 15.9551 14.9448 15.9551 13.6992C15.9551 12.455 14.9435 11.4434 13.6992 11.4434ZM25.5527 17.4316C23.6693 17.4316 22.4195 18.4623 21.9023 19.4414H21.8203V17.7188H18.1289V30.1875H21.9844V24.0352C21.9844 22.4103 22.3076 20.8359 24.3223 20.8359C26.3081 20.8359 26.332 22.6721 26.332 24.1172V30.1875H30.1875V23.3379C30.1875 19.9831 29.4732 17.4316 25.5527 17.4316ZM11.8125 17.7188V30.1875H15.709V17.7188H11.8125Z" fill="white"/>
</svg>
