<svg width="32" height="32" viewBox="0 0 32 32" fill="none" xmlns="http://www.w3.org/2000/svg">
<g clip-path="url(#clip0_484_2)">
<path d="M29.3333 0C29.9865 8.61615e-05 30.6169 0.239883 31.105 0.673907C31.5931 1.10793 31.9049 1.706 31.9813 2.35467L32 2.66667V29.3333C31.9999 29.9865 31.7601 30.6169 31.3261 31.105C30.8921 31.5931 30.294 31.9049 29.6453 31.9813L29.3333 32H2.66667C2.01351 31.9999 1.3831 31.7601 0.895008 31.3261C0.406915 30.8921 0.0950859 30.294 0.0186667 29.6453L0 29.3333V2.66667C8.61615e-05 2.01351 0.239883 1.3831 0.673907 0.895008C1.10793 0.406915 1.706 0.0950859 2.35467 0.0186667L2.66667 0H29.3333ZM29.3333 2.66667H2.66667V29.3333H29.3333V2.66667ZM20.6453 12.3467C24.6507 12.3467 25.392 14.9813 25.392 18.408L25.3867 25.3867H21.44L21.432 18.6667C21.4053 17.3067 21.1707 15.8267 19.3813 15.8267C17.4533 15.8267 17.056 17.24 17.0133 18.784L17.008 25.3867H13.0587V12.6667H16.8507V14.4H16.904C17.2837 13.7513 17.8321 13.2175 18.4908 12.8555C19.1496 12.4935 19.8941 12.3194 20.6453 12.3467ZM10.576 12.664V25.3867H6.61867V12.664H10.576ZM8.6 6.33867C9.20823 6.33867 9.79155 6.58029 10.2216 7.01037C10.6517 7.44045 10.8933 8.02377 10.8933 8.632C10.8933 9.24023 10.6517 9.82355 10.2216 10.2536C9.79155 10.6837 9.20823 10.9253 8.6 10.9253C7.99177 10.9253 7.40845 10.6837 6.97837 10.2536C6.54829 9.82355 6.30667 9.24023 6.30667 8.632C6.30667 8.02377 6.54829 7.44045 6.97837 7.01037C7.40845 6.58029 7.99177 6.33867 8.6 6.33867Z" fill="#72BEC0"/>
</g>
<defs>
<clipPath id="clip0_484_2">
<rect width="32" height="32" fill="white"/>
</clipPath>
</defs>
</svg>
