<svg width="44" height="42" viewBox="0 0 44 42" fill="none" xmlns="http://www.w3.org/2000/svg">
<path d="M11.0574 6.5625C9.21769 6.5625 7.698 8.04686 7.698 9.84375V32.1562C7.698 33.9531 9.21769 35.4375 11.0574 35.4375H33.9011C35.7408 35.4375 37.2605 33.9531 37.2605 32.1562V9.84375C37.2605 8.04686 35.7408 6.5625 33.9011 6.5625H11.0574ZM11.0574 9.1875H33.9011C34.2867 9.1875 34.573 9.46714 34.573 9.84375V32.1562C34.573 32.5329 34.2867 32.8125 33.9011 32.8125H11.0574C10.6718 32.8125 10.3855 32.5329 10.3855 32.1562V9.84375C10.3855 9.46714 10.6718 9.1875 11.0574 9.1875ZM15.0046 11.4434C13.7281 11.4434 12.6951 12.4537 12.6951 13.6992C12.6951 14.9448 13.7267 15.9551 15.0046 15.9551C16.2785 15.9551 17.3142 14.9448 17.3142 13.6992C17.3142 12.455 16.2785 11.4434 15.0046 11.4434ZM27.1404 17.4316C25.2121 17.4316 23.9325 18.4623 23.4031 19.4414H23.3191V17.7188H19.5398V30.1875H23.4871V24.0352C23.4871 22.4103 23.818 20.8359 25.8806 20.8359C27.9137 20.8359 27.9382 22.6721 27.9382 24.1172V30.1875H31.8855V23.3379C31.8855 19.9831 31.1542 17.4316 27.1404 17.4316ZM13.073 17.7188V30.1875H17.0623V17.7188H13.073Z" fill="#72BEC0"/>
</svg>
